<?xml version="1.0" encoding="UTF-8"?>
<!DOCTYPE svg PUBLIC "-//W3C//DTD SVG 1.1//EN" "http://www.w3.org/Graphics/SVG/1.1/DTD/svg11.dtd">
<svg xmlns="http://www.w3.org/2000/svg" version="1.1" width="361px" height="249px" style="shape-rendering:geometricPrecision; text-rendering:geometricPrecision; image-rendering:optimizeQuality; fill-rule:evenodd; clip-rule:evenodd" xmlns:xlink="http://www.w3.org/1999/xlink">
<g><path style="opacity:1" fill="#ffffff" d="M 269.5,49.5 C 269.768,52.1194 269.435,54.6194 268.5,57C 270.396,58.8083 270.896,60.975 270,63.5C 269.566,59.7771 268.732,59.6105 267.5,63C 268.093,64.8817 269.427,65.8817 271.5,66C 270.692,66.3076 270.025,66.8076 269.5,67.5C 270.428,68.7678 270.595,70.1011 270,71.5C 268.414,69.3295 267.08,66.9962 266,64.5C 263.632,63.6314 262.132,61.9647 261.5,59.5C 260.675,58.6143 259.675,58.281 258.5,58.5C 258.33,57.1779 258.663,56.0113 259.5,55C 256.632,51.6335 253.299,48.8002 249.5,46.5C 248.893,46.6236 248.56,46.9569 248.5,47.5C 218.205,20.755 185.205,16.9217 149.5,36C 137.467,44.0311 128.3,54.5311 122,67.5C 120.786,69.0488 119.286,70.2155 117.5,71C 104.999,73.9978 99.6661,69.1645 101.5,56.5C 93.1667,56.5 84.8333,56.5 76.5,56.5C 76.6653,60.1817 76.4986,63.8484 76,67.5C 72.0662,74.1575 67.3996,74.8242 62,69.5C 60.4055,62.2735 60.0722,54.9402 61,47.5C 62.1667,45 64,43.1667 66.5,42C 80.1192,40.4273 93.7858,40.094 107.5,41C 111.048,41.4405 114.048,42.9405 116.5,45.5C 142.449,13.0155 175.783,1.51552 216.5,11C 238.853,17.4981 256.52,30.3314 269.5,49.5 Z"/></g>
<g><path style="opacity:1" fill="#ffffff" d="M 251.5,80.5 C 251.41,83.1522 252.076,85.4855 253.5,87.5C 254.672,96.1578 251.006,99.3244 242.5,97C 239.624,91.7201 237.124,86.2201 235,80.5C 223.124,60.6465 205.624,52.1465 182.5,55C 174.854,56.6598 167.521,59.1598 160.5,62.5C 152.938,60.6551 151.105,56.3218 155,49.5C 177.581,34.5886 200.747,33.7553 224.5,47C 237.421,55.0091 246.421,66.1758 251.5,80.5 Z"/></g>
<g><path style="opacity:1" fill="#ffffff" d="M 235.5,127.5 C 235.41,130.152 236.076,132.485 237.5,134.5C 238.234,135.878 238.901,137.378 239.5,139C 263.731,144.652 274.898,159.819 273,184.5C 269.556,199.11 260.723,208.776 246.5,213.5C 245.816,211.815 244.483,210.815 242.5,210.5C 241.284,211.002 240.117,211.335 239,211.5C 238.5,211 238,210.5 237.5,210C 240.763,209.936 243.763,209.102 246.5,207.5C 247.086,207.709 247.586,208.043 248,208.5C 250.188,208.121 252.355,206.954 254.5,205C 254.167,204.667 253.833,204.333 253.5,204C 256.102,201.984 257.769,199.817 258.5,197.5C 256.166,196.666 254.166,195.333 252.5,193.5C 251.583,194.127 250.583,194.461 249.5,194.5C 258.722,185.142 259.888,174.809 253,163.5C 246.344,157.562 238.51,154.728 229.5,155C 227.714,154.215 226.214,153.049 225,151.5C 223.303,128.837 212.469,112.337 192.5,102C 155.246,92.879 131.079,106.712 120,143.5C 116.708,147.249 112.875,148.082 108.5,146C 94.6633,129.099 78.9966,127.099 61.5,140C 50.1396,153.436 48.6396,167.936 57,183.5C 59.6961,187.361 62.8627,190.694 66.5,193.5C 65.8826,193.611 65.3826,193.944 65,194.5C 64.5814,193.328 63.9147,192.328 63,191.5C 62,192.833 61,192.833 60,191.5C 59.3551,192.646 58.5217,193.646 57.5,194.5C 57.8333,195.167 58.1667,195.833 58.5,196.5C 56.5331,197.202 54.8665,197.202 53.5,196.5C 54.6477,198.149 55.981,199.649 57.5,201C 61.4004,204.083 65.7337,206.416 70.5,208C 69.2721,209.49 69.2721,210.99 70.5,212.5C 39.7449,198.767 29.5782,175.767 40,143.5C 51.3206,122.423 68.8206,113.423 92.5,116.5C 93.4687,117.309 94.3021,118.309 95,119.5C 95.6708,118.748 96.5041,118.414 97.5,118.5C 102.025,119.429 106.025,121.429 109.5,124.5C 129.676,87.1609 160.009,74.9943 200.5,88C 217.364,96.562 229.031,109.729 235.5,127.5 Z"/></g>
<g><path style="opacity:0.859" fill="#ffffff" d="M 251.5,80.5 C 252.924,82.5145 253.59,84.8478 253.5,87.5C 252.076,85.4855 251.41,83.1522 251.5,80.5 Z"/></g>
<g><path style="opacity:1" fill="#ffffff" d="M 342.5,101.5 C 349.785,112.684 354.119,125.018 355.5,138.5C 355.666,146.507 355.5,154.507 355,162.5C 354.346,161.304 353.846,161.304 353.5,162.5C 354.374,164.747 354.708,167.08 354.5,169.5C 346.14,206.033 324.14,230.2 288.5,242C 283.937,243.475 279.27,244.308 274.5,244.5C 274.167,244.5 273.833,244.5 273.5,244.5C 255.021,243.011 236.355,242.178 217.5,242C 222.583,241.574 227.583,240.74 232.5,239.5C 235.405,240.259 238.572,240.593 242,240.5C 242.667,239.833 243.333,239.167 244,238.5C 247.745,239.297 251.579,239.797 255.5,240C 252.5,240.333 249.5,240.667 246.5,241C 258.273,242.082 269.606,241.416 280.5,239C 279.5,238.667 278.5,238.333 277.5,238C 280.833,237.667 284.167,237.333 287.5,237C 286.833,236.667 286.167,236.333 285.5,236C 291.616,232.942 297.949,230.442 304.5,228.5C 302.978,226.844 303.311,225.677 305.5,225C 303.043,223.846 303.043,222.512 305.5,221C 302.16,221.155 298.826,221.655 295.5,222.5C 315.854,212.481 329.854,196.814 337.5,175.5C 338.924,173.485 339.59,171.152 339.5,168.5C 341.534,153.266 340.534,138.266 336.5,123.5C 337.725,122.848 338.392,121.681 338.5,120C 337.19,114.88 335.19,110.047 332.5,105.5C 333.355,104.707 334.189,105.04 335,106.5C 335.783,104.567 335.283,103.067 333.5,102C 336.646,100.522 339.646,100.356 342.5,101.5 Z"/></g>
<g><path style="opacity:1" fill="#ffffff" d="M 32.5,202.5 C 32.8451,207.672 35.1785,211.339 39.5,213.5C 38.7611,213.369 38.0944,213.536 37.5,214C 40.535,217.37 43.8683,220.37 47.5,223C 46.5,223.333 45.5,223.667 44.5,224C 45.6667,224.5 46.5,225.333 47,226.5C 48.073,225.72 49.2396,225.887 50.5,227C 45.9413,227.311 45.608,228.145 49.5,229.5C 51.3445,228.062 52.5112,228.396 53,230.5C 54.073,229.72 55.2396,229.887 56.5,231C 55.1667,231.333 53.8333,231.667 52.5,232C 53.2529,233.487 54.0862,233.654 55,232.5C 56,234.167 57,235.833 58,237.5C 58.3333,237.167 58.6667,236.833 59,236.5C 66.3817,238.595 73.8817,240.429 81.5,242C 78.3004,242.101 75.3004,242.768 72.5,244C 139.499,244.5 206.499,244.667 273.5,244.5C 273.833,244.5 274.167,244.5 274.5,244.5C 207.001,245.665 139.335,245.832 71.5,245C 29.9609,234.458 7.62755,207.791 4.5,165C 5.59903,134.114 19.2657,110.78 45.5,95C 63.8126,85.2138 82.8126,83.3805 102.5,89.5C 106.455,93.6293 106.455,97.796 102.5,102C 100.801,102.958 98.9674,103.458 97,103.5C 67.4171,97.9605 44.7504,107.961 29,133.5C 18.0557,157.173 19.2223,180.173 32.5,202.5 Z"/></g>
<g><path style="opacity:1" fill="#ffffff" d="M 92.5,116.5 C 94.5529,116.402 96.2196,117.069 97.5,118.5C 96.5041,118.414 95.6708,118.748 95,119.5C 94.3021,118.309 93.4687,117.309 92.5,116.5 Z"/></g>
<g><path style="opacity:1" fill="#ffffff" d="M 235.5,127.5 C 236.924,129.515 237.59,131.848 237.5,134.5C 236.076,132.485 235.41,130.152 235.5,127.5 Z"/></g>
<g><path style="opacity:1" fill="#ffffff" d="M 269.5,49.5 C 271.361,52.0216 273.361,54.5216 275.5,57C 304.738,61.787 327.071,76.6204 342.5,101.5C 339.646,100.356 336.646,100.522 333.5,102C 335.283,103.067 335.783,104.567 335,106.5C 334.189,105.04 333.355,104.707 332.5,105.5C 335.19,110.047 337.19,114.88 338.5,120C 338.392,121.681 337.725,122.848 336.5,123.5C 326.241,99.2439 308.574,82.9106 283.5,74.5C 282.614,75.325 282.281,76.325 282.5,77.5C 282.41,80.1522 283.076,82.4855 284.5,84.5C 285.103,86.6794 285.77,88.846 286.5,91C 316.495,105.812 329.661,129.979 326,163.5C 325.211,169.556 322.711,174.723 318.5,179C 312.02,181.27 308.353,179.103 307.5,172.5C 316.924,138.014 305.091,114.348 272,101.5C 269.86,80.8998 262.027,62.8998 248.5,47.5C 248.56,46.9569 248.893,46.6236 249.5,46.5C 253.299,48.8002 256.632,51.6335 259.5,55C 258.663,56.0113 258.33,57.1779 258.5,58.5C 259.675,58.281 260.675,58.6143 261.5,59.5C 262.132,61.9647 263.632,63.6314 266,64.5C 267.08,66.9962 268.414,69.3295 270,71.5C 270.595,70.1011 270.428,68.7678 269.5,67.5C 270.025,66.8076 270.692,66.3076 271.5,66C 269.427,65.8817 268.093,64.8817 267.5,63C 268.732,59.6105 269.566,59.7771 270,63.5C 270.896,60.975 270.396,58.8083 268.5,57C 269.435,54.6194 269.768,52.1194 269.5,49.5 Z"/></g>
<g><path style="opacity:0.745" fill="#ffffff" d="M 282.5,77.5 C 283.924,79.5145 284.59,81.8478 284.5,84.5C 283.076,82.4855 282.41,80.1522 282.5,77.5 Z"/></g>
<g><path style="opacity:0.796" fill="#ffffff" d="M 355.5,138.5 C 356.166,142.486 356.499,146.653 356.5,151C 356.674,157.406 356.007,163.573 354.5,169.5C 354.708,167.08 354.374,164.747 353.5,162.5C 353.846,161.304 354.346,161.304 355,162.5C 355.5,154.507 355.666,146.507 355.5,138.5 Z"/></g>
<g><path style="opacity:1" fill="#ffffff" d="M 339.5,168.5 C 339.59,171.152 338.924,173.485 337.5,175.5C 337.41,172.848 338.076,170.515 339.5,168.5 Z"/></g>
<g><path style="opacity:1" fill="#ffffff" d="M 66.5,193.5 C 70.1454,194.987 73.812,196.487 77.5,198C 113.5,198.333 149.5,198.667 185.5,199C 193.1,203.579 193.433,208.579 186.5,214C 149.5,214.667 112.5,214.667 75.5,214C 73.7525,213.648 72.0858,213.148 70.5,212.5C 69.2721,210.99 69.2721,209.49 70.5,208C 65.7337,206.416 61.4004,204.083 57.5,201C 55.981,199.649 54.6477,198.149 53.5,196.5C 54.8665,197.202 56.5331,197.202 58.5,196.5C 58.1667,195.833 57.8333,195.167 57.5,194.5C 58.5217,193.646 59.3551,192.646 60,191.5C 61,192.833 62,192.833 63,191.5C 63.9147,192.328 64.5814,193.328 65,194.5C 65.3826,193.944 65.8826,193.611 66.5,193.5 Z"/></g>
<g><path style="opacity:1" fill="#ffffff" d="M 246.5,213.5 C 235.709,214.178 224.876,214.844 214,215.5C 205.737,214.61 202.737,210.277 205,202.5C 206.214,200.951 207.714,199.785 209.5,199C 220.167,198.667 230.833,198.333 241.5,198C 244.31,197.094 246.976,195.927 249.5,194.5C 250.583,194.461 251.583,194.127 252.5,193.5C 254.166,195.333 256.166,196.666 258.5,197.5C 257.769,199.817 256.102,201.984 253.5,204C 253.833,204.333 254.167,204.667 254.5,205C 252.355,206.954 250.188,208.121 248,208.5C 247.586,208.043 247.086,207.709 246.5,207.5C 243.763,209.102 240.763,209.936 237.5,210C 238,210.5 238.5,211 239,211.5C 240.117,211.335 241.284,211.002 242.5,210.5C 244.483,210.815 245.816,211.815 246.5,213.5 Z"/></g>
<g><path style="opacity:1" fill="#ffffff" d="M 32.5,202.5 C 37.5,208.167 42.8333,213.5 48.5,218.5C 47.5041,218.414 46.6708,218.748 46,219.5C 44.0341,217.18 41.8674,215.18 39.5,213.5C 35.1785,211.339 32.8451,207.672 32.5,202.5 Z"/></g>
<g><path style="opacity:1" fill="#ffffff" d="M 39.5,213.5 C 41.8674,215.18 44.0341,217.18 46,219.5C 46.6708,218.748 47.5041,218.414 48.5,218.5C 54.4392,222.303 60.7726,225.303 67.5,227.5C 68.4687,228.309 69.3021,229.309 70,230.5C 71.6995,229.594 73.5328,229.261 75.5,229.5C 140.167,229.5 204.833,229.5 269.5,229.5C 273.489,229.884 277.155,229.217 280.5,227.5C 285.558,226.036 290.558,224.37 295.5,222.5C 298.826,221.655 302.16,221.155 305.5,221C 303.043,222.512 303.043,223.846 305.5,225C 303.311,225.677 302.978,226.844 304.5,228.5C 297.949,230.442 291.616,232.942 285.5,236C 286.167,236.333 286.833,236.667 287.5,237C 284.167,237.333 280.833,237.667 277.5,238C 278.5,238.333 279.5,238.667 280.5,239C 269.606,241.416 258.273,242.082 246.5,241C 249.5,240.667 252.5,240.333 255.5,240C 251.579,239.797 247.745,239.297 244,238.5C 243.333,239.167 242.667,239.833 242,240.5C 238.572,240.593 235.405,240.259 232.5,239.5C 227.583,240.74 222.583,241.574 217.5,242C 236.355,242.178 255.021,243.011 273.5,244.5C 206.499,244.667 139.499,244.5 72.5,244C 75.3004,242.768 78.3004,242.101 81.5,242C 73.8817,240.429 66.3817,238.595 59,236.5C 58.6667,236.833 58.3333,237.167 58,237.5C 57,235.833 56,234.167 55,232.5C 54.0862,233.654 53.2529,233.487 52.5,232C 53.8333,231.667 55.1667,231.333 56.5,231C 55.2396,229.887 54.073,229.72 53,230.5C 52.5112,228.396 51.3445,228.062 49.5,229.5C 45.608,228.145 45.9413,227.311 50.5,227C 49.2396,225.887 48.073,225.72 47,226.5C 46.5,225.333 45.6667,224.5 44.5,224C 45.5,223.667 46.5,223.333 47.5,223C 43.8683,220.37 40.535,217.37 37.5,214C 38.0944,213.536 38.7611,213.369 39.5,213.5 Z"/></g>
<g><path style="opacity:1" fill="#ffffff" d="M 67.5,227.5 C 70.3725,227.802 73.0392,228.469 75.5,229.5C 73.5328,229.261 71.6995,229.594 70,230.5C 69.3021,229.309 68.4687,228.309 67.5,227.5 Z"/></g>
<g><path style="opacity:1" fill="#ffffff" d="M 280.5,227.5 C 277.155,229.217 273.489,229.884 269.5,229.5C 272.974,228.475 276.64,227.808 280.5,227.5 Z"/></g>
</svg>
